<svg width="1440" height="1525" viewBox="0 0 1440 1525" fill="none" xmlns="http://www.w3.org/2000/svg">
<path d="M101.718 135.084C101.718 135.084 705.344 -54.9796 1078.01 15.7893C1229.81 44.6159 1440 135.084 1440 135.084V1179.22C1240.65 1179.22 1662.58 1560.17 101.718 1228.11C-1459.15 896.05 101.718 135.084 101.718 135.084Z" fill="#D5E4F7"/>
<path d="M184.179 225.226C148.439 178.356 128.646 122.957 -19.2942 31.4934L-28.247 237.57L-43.5081 588.853C-43.5081 588.853 5.12507 700.103 53.392 670.388C101.659 640.673 148.926 618.407 218.229 500.697C287.532 382.987 224.405 268.004 184.179 225.226Z" fill="#8BCFE2" fill-opacity="0.28"/>
<path d="M1232.09 1285.71C1248.63 1325.63 1276.73 1493.02 1381.22 1514.66C1404.7 1519.53 1442.56 1517.37 1442.56 1517.37C1442.56 1517.37 1464.03 1521.6 1477.37 1518.91C1513.65 1511.59 1518 1476.63 1535.33 1443.92C1579.02 1361.45 1540.02 1298.32 1545.86 1205.17C1554.03 1074.74 1607.75 963.257 1575.44 871.842C1543.13 780.427 1595.85 804.785 1507.08 689.562C1418.31 574.34 1341.84 721.907 1314.85 805.267C1303.91 839.04 1308.72 860.645 1310.84 896.082C1312.82 929.06 1330.46 947.237 1324.04 979.643C1314.61 1027.22 1256.58 1052.98 1241.5 1072.44C1186.7 1153.42 1212.4 1248.36 1232.09 1285.71Z" fill="#FFE4BB"/>
<circle cx="233" cy="92" r="49" fill="#E8DC51"/>
</svg>
