<svg width="1440" height="2877" viewBox="0 0 1440 2877" fill="none" xmlns="http://www.w3.org/2000/svg">
<path d="M0 459C0 459 527.505 475.183 928.5 627.415C1091.84 689.424 1440 459 1440 459L1763.5 2877C928.5 2108 -10.5 3308.7 -95.5 2582.5L0 459Z" fill="#D5E4F7"/>
<path d="M1032.72 1391C1091 1244.53 1274.41 1318.09 1497.6 1179L1553.83 1438.76L1649.68 1881.55C1649.68 1881.55 1672.57 1963.69 1642.3 1997.48C1612.55 2030.7 1618.14 1985.71 1530.11 2018.68C1442.08 2051.65 1237.98 1954.33 1204.35 1906C1170.72 1857.67 981.557 1519.61 1032.72 1391Z" fill="#D1826A" fill-opacity="0.67"/>
<path d="M177.743 272.761C140.425 208.849 124.293 136.765 -45.9743 -1.2301e-05L-88.8731 255.423L-162 690.825C-162 690.825 -118.531 836.95 -53.8063 807.355C10.9187 777.76 73.2505 757.294 177.743 621.285C282.236 485.276 221.282 332.265 177.743 272.761Z" fill="#8BCFE2" fill-opacity="0.28"/>
</svg>
