<svg width="271" height="135" viewBox="0 0 271 135" fill="none" xmlns="http://www.w3.org/2000/svg">
<path d="M200.875 66.2228L171.225 34.7006H51.0212V39.0898L55.8293 43.878L14.96 76.9962V110.114H39.4014V103.73C39.4014 103.73 50.3192 85.7745 61.4388 85.7745C72.5585 85.7745 83.4762 103.73 83.4762 103.73V110.114H204.081V103.73C204.081 103.73 214.899 85.7745 226.319 85.7745C237.738 85.7745 248.556 103.73 248.556 103.73V110.114H270.994V103.73L266.186 100.139V79.7893L200.875 66.2228Z" fill="#D5E4F7"/>
<path d="M237.771 103.151V83.8914L176.215 71.0515L148.27 41.2178H34.9771V45.3718L39.5088 49.9036L0.989258 81.2479V112.592M242.303 112.592H221.155M179.237 112.592H65.5662" stroke="black"/>
<path d="M32.332 72.5621H91.9996V52.1694H58.3894" stroke="black"/>
<path d="M163 72.9398L143.363 52.1694H101.822V72.9398" stroke="black"/>
<path d="M26.4749 121.409C25.421 117.993 25.3864 114.343 26.3752 110.907C27.3641 107.471 29.3335 104.398 32.0423 102.064C34.7511 99.7305 38.0817 98.2375 41.6262 97.7679C45.1706 97.2984 48.7751 97.8726 51.9981 99.4205C55.2211 100.968 57.9228 103.422 59.7722 106.482C61.6217 109.542 62.5386 113.075 62.4107 116.648C62.2828 120.221 61.1157 123.68 59.0522 126.6C56.9887 129.52 54.1185 131.774 50.7931 133.088" stroke="black"/>
<path d="M181.998 121.409C180.944 117.993 180.91 114.343 181.899 110.907C182.888 107.471 184.857 104.398 187.566 102.064C190.275 99.7305 193.605 98.2375 197.15 97.7679C200.694 97.2984 204.299 97.8726 207.522 99.4205C210.745 100.968 213.446 103.422 215.296 106.482C217.145 109.542 218.062 113.075 217.934 116.648C217.806 120.221 216.639 123.68 214.576 126.6C212.512 129.52 209.642 131.774 206.317 133.088" stroke="black"/>
</svg>
