<svg width="185" height="118" viewBox="0 0 185 118" fill="none" xmlns="http://www.w3.org/2000/svg">
<circle cx="48.1015" cy="79.8556" r="32.7518" fill="#63DAFF" fill-opacity="0.7"/>
<path d="M140.822 18.0038L92.9821 84.6115L75.3182 33.0918L140.822 18.0038Z" fill="#63DAFF" fill-opacity="0.7"/>
<circle cx="151.877" cy="79.8556" r="32.7518" fill="#63DAFF" fill-opacity="0.7"/>
<path d="M115.349 90.6753C112.522 84.6839 111.608 77.9671 112.733 71.4382C113.857 64.9093 116.965 58.8851 121.633 54.1844C126.302 49.4838 132.305 46.3349 138.826 45.1659C145.347 43.9968 152.069 44.8643 158.08 47.6505C164.091 50.4366 169.098 55.0061 172.42 60.7379C175.742 66.4696 177.219 73.0854 176.649 79.6859C176.079 86.2863 173.49 92.5511 169.235 97.6286C164.979 102.706 159.263 106.35 152.864 108.065" stroke="black"/>
<path d="M11.5748 90.6753C8.74757 84.6839 7.83399 77.9671 8.95831 71.4382C10.0826 64.9093 13.1903 58.8851 17.8588 54.1844C22.5273 49.4838 28.5301 46.3349 35.0511 45.1659C41.5722 43.9968 48.295 44.8643 54.3057 47.6505C60.3164 50.4366 65.3232 55.0061 68.6456 60.7379C71.9679 66.4696 73.4445 73.0854 72.8746 79.6859C72.3048 86.2863 69.7161 92.5511 65.4605 97.6286C61.2049 102.706 55.489 106.35 49.0897 108.065" stroke="black"/>
<line x1="65.8738" y1="13.0959" x2="87.9537" y2="82.2796" stroke="black"/>
<line x1="78.6455" y1="13.0119" x2="60.2456" y2="13.0119" stroke="black"/>
<line x1="119.595" y1="7.92428" x2="144.618" y2="76.372" stroke="black"/>
<line x1="110.293" y1="7.59596" x2="119.861" y2="7.59596" stroke="black"/>
</svg>
