<svg width="67" height="623" viewBox="0 0 67 623" fill="none" xmlns="http://www.w3.org/2000/svg">
<path d="M42.8979 338.882L25.2353 338.882L14.9663 614.672L51.9345 614.672L42.8979 338.882Z" fill="#DFA797"/>
<ellipse rx="32.8607" ry="34.5726" transform="matrix(-1 -8.74228e-08 -8.74228e-08 1 33.861 310.36)" fill="#DFA797"/>
<rect width="22.181" height="32.844" transform="matrix(-1 -8.74228e-08 -8.74228e-08 1 44.541 246.4)" fill="#DFA797"/>
<path d="M33.7059 0L29 245H39L33.7059 0Z" fill="#DFA797"/>
<path d="M31 351C27 498 27.5097 478.623 21 622.5H59" stroke="black"/>
<path d="M41 238.5L35.5 8" stroke="black"/>
<path d="M56.8345 322.835C52.3939 327.275 46.7785 330.356 40.6476 331.717C34.5168 333.077 28.1251 332.659 22.2232 330.513C16.3213 328.367 11.1543 324.582 7.32895 319.602C3.50359 314.621 1.17874 308.653 0.627415 302.397C0.0760951 296.141 1.3212 289.858 4.21651 284.286C7.11181 278.713 11.5371 274.082 16.9727 270.937C22.4082 267.792 28.6284 266.263 34.9027 266.53C41.1769 266.797 47.2447 268.848 52.3935 272.444" stroke="black"/>
</svg>
