<svg viewBox="0 0 1440 909" fill="none" xmlns="http://www.w3.org/2000/svg">
<path d="M197.287 107.908C154.328 151.832 45.4281 289.781 -46.5 490.184V637.741L43.6505 705L645.5 654.213L605.504 490.184C585.611 414.003 522.972 230.895 431.551 107.908C340.131 -15.0797 237.283 56.6629 197.287 107.908Z" fill="#8BCFE2"/>
<path d="M175.911 68.9076C136.366 112.832 36.1217 250.781 -48.5 451.184V598.741L34.4853 666L588.5 615.213L551.683 451.184C533.371 375.003 475.71 191.895 391.556 68.9076C307.402 -54.0797 212.728 17.6629 175.911 68.9076Z" stroke="black"/>
<path d="M342.08 297.425C273.606 329.393 100.027 429.795 -46.5 575.653V683.048V744C-46.5 744 30.5133 811.745 89 839.5C236.476 909.485 343.789 836.478 507 839.5C735.546 843.731 934.5 929 1091.75 865.5C1249 802 1210.5 896 1405 732C1599.5 568 1261.6 486.6 1188 405C1114.4 323.4 1051.33 371 1029 405C1001.67 435.667 934.4 484.5 884 434.5C833.6 384.5 750.654 322.283 715.481 297.425C569.763 207.912 405.831 260.128 342.08 297.425Z" fill="#FFE4BB" fill-opacity="0.95"/>
<path d="M-76 683.5L63.5 545.653C210.027 399.795 383.606 299.393 452.08 267.425C515.831 230.128 679.763 177.912 825.481 267.425C860.654 292.283 943.6 354.5 994 404.5C1044.4 454.5 1111.67 405.667 1139 375C1161.33 341 1224.4 293.4 1298 375C1371.6 456.6 1473.33 627 1515 702" stroke="black"/>
<circle cx="1169" cy="845" r="64" fill="#E8DC51" fill-opacity="0.8"/>
</svg>
