<svg width="380" height="380" viewBox="0 0 380 380" fill="none" xmlns="http://www.w3.org/2000/svg">
<circle cx="190" cy="190" r="190" fill="#192E53"/>
<path d="M149.702 212.549L180.27 178.805L101 127.928L113.953 118.065L215.501 143.503L238.297 120.141C238.297 120.141 250.214 104.567 260.576 102.49C270.938 100.414 275.082 105.605 275.082 105.605C275.082 105.605 280.263 111.316 278.709 118.065C277.155 124.814 269.383 134.158 269.383 134.158L238.297 166.345L262.648 263.945L253.322 279L202.03 202.166L168.353 230.2L180.27 266.54L171.98 279L149.702 246.294L132.086 249.409L134.677 230.2L103.072 209.954L113.953 202.166L149.702 212.549Z" fill="#F06439"/>
<path d="M104.5 205.472L139 215.472L168.5 182.972L92 133.972L104.5 124.472L202.5 148.972M94 212.972L124.5 232.472L122 250.972M139 247.972L160.5 279.472L168.5 267.472L157 232.472M189.5 205.472L239 279.472L248 264.972L224.5 170.972L254.5 139.972C254.5 139.972 262 130.972 263.5 124.472C265 117.972 260 112.472 260 112.472" stroke="white" stroke-width="2"/>
</svg>
