<svg width="380" height="380" viewBox="0 0 380 380" fill="none" xmlns="http://www.w3.org/2000/svg">
<circle cx="190" cy="190" r="190" fill="#192E53"/>
<path d="M254.881 173.97L225.231 142.448H105.027V146.837L109.835 151.626L68.9658 184.744V217.862H93.4073V211.478C93.4073 211.478 104.325 193.522 115.445 193.522C126.564 193.522 137.482 211.478 137.482 211.478V217.862H258.087V211.478C258.087 211.478 268.905 193.522 280.324 193.522C291.744 193.522 302.562 211.478 302.562 211.478V217.862H325V211.478L320.192 207.887V187.537L254.881 173.97Z" fill="#EFDF23"/>
<path d="M291.782 210.899V191.639L230.226 178.799L202.281 148.965H88.9878V153.12L93.5196 157.651L55 188.996V220.34M296.314 220.34H275.166M233.247 220.34H119.577" stroke="white" stroke-width="2"/>
<path d="M86.3438 180.31H146.011V159.917H112.401" stroke="white" stroke-width="2"/>
<path d="M217.009 180.687L197.372 159.917H155.831V180.687" stroke="white" stroke-width="2"/>
<path d="M80.9634 229.01C79.9382 225.686 79.9045 222.135 80.8665 218.793C81.8284 215.45 83.7443 212.461 86.3794 210.191C89.0145 207.921 92.2545 206.468 95.7026 206.011C99.1506 205.555 102.657 206.113 105.792 207.619C108.928 209.125 111.556 211.512 113.355 214.489C115.154 217.466 116.046 220.902 115.922 224.378C115.797 227.854 114.662 231.218 112.655 234.059C110.647 236.899 107.855 239.093 104.62 240.37" stroke="white" stroke-width="2"/>
<path d="M236.484 229.01C235.459 225.686 235.425 222.135 236.387 218.793C237.349 215.45 239.265 212.461 241.9 210.191C244.535 207.921 247.775 206.468 251.223 206.011C254.671 205.555 258.178 206.113 261.313 207.619C264.448 209.125 267.076 211.512 268.876 214.489C270.675 217.466 271.567 220.902 271.442 224.378C271.318 227.854 270.182 231.218 268.175 234.059C266.168 236.899 263.376 239.093 260.141 240.37" stroke="white" stroke-width="2"/>
</svg>
