<svg width="380" height="380" viewBox="0 0 380 380" fill="none" xmlns="http://www.w3.org/2000/svg">
<circle cx="190" cy="190" r="189.5" fill="white" stroke="black"/>
<path d="M254.881 173.97L225.231 142.448H105.027V146.837L109.835 151.626L68.9658 184.744V217.862H93.4073V211.478C93.4073 211.478 104.325 193.522 115.445 193.522C126.564 193.522 137.482 211.478 137.482 211.478V217.862H258.087V211.478C258.087 211.478 268.905 193.522 280.324 193.522C291.744 193.522 302.562 211.478 302.562 211.478V217.862H325V211.478L320.192 207.887V187.537L254.881 173.97Z" fill="#E8DC51" fill-opacity="0.8"/>
<path d="M291.782 210.899V191.639L230.226 178.799L202.281 148.966H88.9878V153.12L93.5196 157.651L55 188.996V220.34M296.314 220.34H275.166M233.247 220.34H119.577" stroke="black"/>
<path d="M86.3438 180.31H146.011V159.917H112.401" stroke="black"/>
<path d="M217.009 180.687L197.372 159.917H155.831V180.687" stroke="black"/>
<path d="M80.4856 229.157C79.4317 225.74 79.3971 222.091 80.386 218.655C81.3748 215.219 83.3443 212.146 86.0531 209.812C88.7619 207.478 92.0924 205.985 95.6369 205.516C99.1814 205.046 102.786 205.621 106.009 207.168C109.232 208.716 111.934 211.17 113.783 214.23C115.632 217.29 116.549 220.823 116.421 224.396C116.294 227.969 115.126 231.428 113.063 234.348C110.999 237.267 108.129 239.522 104.804 240.836" stroke="black"/>
<path d="M236.006 229.157C234.952 225.74 234.918 222.091 235.906 218.655C236.895 215.219 238.865 212.146 241.574 209.812C244.282 207.478 247.613 205.985 251.157 205.516C254.702 205.046 258.306 205.621 261.529 207.168C264.752 208.716 267.454 211.17 269.303 214.23C271.153 217.29 272.07 220.823 271.942 224.396C271.814 227.969 270.647 231.428 268.583 234.348C266.52 237.267 263.65 239.522 260.324 240.836" stroke="black"/>
</svg>
