<svg width="380" height="380" viewBox="0 0 380 380" fill="none" xmlns="http://www.w3.org/2000/svg">
<circle cx="190" cy="190" r="189.5" fill="white" stroke="black"/>
<path d="M199.954 201.107L176.731 187.989C176.731 187.989 128.385 218.28 117.158 197.575C108.862 182.274 129.275 154.688 129.275 154.688C129.275 154.688 114.96 146.112 117.158 138.542C119.302 131.163 135.333 130.974 135.333 130.974C135.333 130.974 125.511 118.402 129.275 111.297C133.039 104.191 148.964 105.242 148.964 105.242C148.964 105.242 144.284 90.0701 148.964 82.5372C155.788 71.5525 181.779 77.9963 181.779 77.9963C181.779 77.9963 197.284 64.618 208.536 66.3916C221.068 68.3669 231.254 89.6009 231.254 89.6009C231.254 89.6009 249.114 85.3644 254.982 92.6283C260.308 99.2204 254.982 114.324 254.982 114.324C254.982 114.324 279.313 114.891 281.234 125.929C282.965 135.873 265.079 146.111 265.079 146.111C286.125 164.566 289.64 181.544 276.691 197.575C262.727 214.862 241.371 184.406 220.148 191.016C211.73 193.637 199.954 201.107 199.954 201.107Z" fill="#8BCFE2" fill-opacity="0.7"/>
<path d="M157.556 182.759C157.556 182.759 109.211 213.051 97.9836 192.345C89.687 177.044 110.1 149.458 110.1 149.458C110.1 149.458 95.785 140.882 97.9836 133.313C100.127 125.933 116.158 125.745 116.158 125.745C116.158 125.745 106.336 113.173 110.1 106.067C113.864 98.9613 129.789 100.012 129.789 100.012C129.789 100.012 125.109 84.8405 129.789 77.3076C136.613 66.3229 162.604 72.7666 162.604 72.7666C162.604 72.7666 178.11 59.3884 189.361 61.1619C201.893 63.1373 212.08 84.3713 212.08 84.3713M200.973 185.786C222.196 179.177 243.552 209.632 257.516 192.345C270.465 176.315 266.95 159.337 245.904 140.881" stroke="black"/>
<line x1="130.928" y1="180.669" x2="178.279" y2="210.732" stroke="black"/>
<line x1="221.687" y1="182.453" x2="178.366" y2="225.613" stroke="black"/>
<line x1="178.431" y1="183.024" x2="178.431" y2="306.792" stroke="black"/>
<line x1="191.763" y1="319.307" x2="178.666" y2="306.21" stroke="black"/>
</svg>
