<svg width="380" height="380" viewBox="0 0 380 380" fill="none" xmlns="http://www.w3.org/2000/svg">
<circle cx="190" cy="190" r="190" fill="#192E53"/>
<path d="M75 213.876V199.761H84.2922V140.38H129.286V117.018L198.245 81L265.736 117.018V140.38H311.708V199.761H321V213.876H217.807V157.416H178.682V213.876H75Z" fill="#E9961A"/>
<path d="M75 218.814V205.796H83.5292V151.029H124.828V129.482L188.124 96.2628L250.073 129.482V151.029H292.27V205.796H300.799V218.814H206.08V166.741H170.168V218.814H75Z" stroke="white" stroke-width="2"/>
<line x1="169.328" y1="221.355" x2="141.496" y2="311.136" stroke="white" stroke-width="2"/>
<line x1="207.036" y1="218.969" x2="228.583" y2="288.998" stroke="white" stroke-width="2"/>
<line x1="212.365" y1="240.015" x2="162.088" y2="240.015" stroke="white" stroke-width="2"/>
<line x1="154.904" y1="259.562" x2="219.547" y2="259.562" stroke="white" stroke-width="2"/>
<line x1="146.824" y1="284.701" x2="227.627" y2="284.701" stroke="white" stroke-width="2"/>
</svg>
