<svg width="380" height="380" viewBox="0 0 380 380" fill="none" xmlns="http://www.w3.org/2000/svg">
<circle cx="190" cy="190" r="189.5" fill="white" stroke="black"/>
<path d="M75 213.876V199.761H84.2922V140.38H129.286V117.018L198.245 81L265.736 117.018V140.38H311.708V199.761H321V213.876H217.807V157.416H178.682V213.876H75Z" fill="#FFC774" fill-opacity="0.8"/>
<path d="M75 218.814V205.796H83.5292V151.029H124.828V129.482L188.124 96.2628L250.073 129.482V151.029H292.27V205.796H300.799V218.814H206.08V166.741H170.168V218.814H75Z" stroke="black"/>
<line x1="168.85" y1="221.206" x2="141.018" y2="310.987" stroke="black"/>
<line x1="206.558" y1="219.116" x2="228.105" y2="289.145" stroke="black"/>
<line x1="212.365" y1="239.515" x2="162.088" y2="239.515" stroke="black"/>
<line x1="154.905" y1="260.062" x2="219.548" y2="260.062" stroke="black"/>
<line x1="146.825" y1="285.201" x2="227.628" y2="285.201" stroke="black"/>
</svg>
