<svg width="380" height="380" viewBox="0 0 380 380" fill="none" xmlns="http://www.w3.org/2000/svg">
<circle cx="190" cy="190" r="189.5" fill="white" stroke="black"/>
<path d="M205.368 136.558L180.406 131L139.495 146.283L118 184.491L129.788 192.133L147.123 156.704L172.778 149.062L159.604 188.659L154.75 238.677L122.16 274.106L133.255 288L172.778 247.708L176.939 213.668L202.594 234.509L205.368 280.358H222.009L218.542 226.173L193.58 203.248L205.368 163.65L218.542 184.491L264.307 192.133L265 183.796L264.307 175.46L224.09 169.903L205.368 136.558Z" fill="#D5E4F7"/>
<ellipse cx="199.5" cy="110" rx="17.5" ry="18" fill="#D5E4F7"/>
<path d="M253 179.628L215.066 174.425L197.408 143.204L173.863 138L135.275 152.31L115 188.084M253 195.239L209.834 188.084M197.408 168.571L186.289 205.646L209.834 227.111L213.104 277.845H197.408L194.791 234.916L170.592 215.403M166.668 247.274L129.389 285L118.924 271.991L149.664 238.819L154.242 191.987L166.668 154.912L142.469 162.066L126.118 195.239" stroke="black"/>
<path d="M196.156 130.205C192.816 130.836 189.358 130.45 186.255 129.102C183.151 127.754 180.554 125.509 178.818 122.678C177.082 119.847 176.29 116.566 176.548 113.283C176.806 110.001 178.102 106.874 180.262 104.33C182.422 101.786 185.34 99.9497 188.62 99.074C191.9 98.1984 195.378 98.3271 198.579 99.4424C201.78 100.558 204.545 102.604 206.499 105.299C208.453 107.995 209.5 111.208 209.5 114.5" stroke="black"/>
</svg>
