<svg width="380" height="380" viewBox="0 0 380 380" fill="none" xmlns="http://www.w3.org/2000/svg">
<circle cx="190" cy="190" r="190" fill="#192E53"/>
<path d="M205.368 136.558L180.406 131L139.495 146.283L118 184.491L129.788 192.133L147.123 156.704L172.778 149.062L159.604 188.659L154.75 238.677L122.16 274.106L133.255 288L172.778 247.708L176.939 213.668L202.594 234.509L205.368 280.358H222.009L218.542 226.173L193.58 203.248L205.368 163.65L218.542 184.491L264.307 192.133L265 183.796L264.307 175.46L224.09 169.903L205.368 136.558Z" fill="#6AACFF"/>
<ellipse cx="199.5" cy="110" rx="17.5" ry="18" fill="#6AACFF"/>
<path d="M253 179.628L215.066 174.425L197.408 143.204L173.863 138L135.275 152.31L115 188.084M253 195.239L209.834 188.084M197.408 168.571L186.289 205.646L209.834 227.111L213.104 277.845H197.408L194.791 234.916L170.592 215.403M166.668 247.274L129.389 285L118.924 271.991L149.664 238.819L154.242 191.987L166.668 154.912L142.469 162.066L126.118 195.239" stroke="white" stroke-width="2"/>
<path d="M196.063 129.713C192.822 130.326 189.465 129.951 186.454 128.643C183.442 127.335 180.926 125.159 179.244 122.416C177.563 119.675 176.796 116.499 177.046 113.323C177.296 110.146 178.551 107.118 180.643 104.654C182.736 102.189 185.566 100.407 188.749 99.5571C191.932 98.7073 195.308 98.8323 198.414 99.9145C201.521 100.997 204.202 102.982 206.094 105.593C207.987 108.204 209 111.314 209 114.5" stroke="white" stroke-width="2"/>
</svg>
